<?xml version="1.0" encoding="UTF-8" standalone="no"?>
<!DOCTYPE svg PUBLIC "-//W3C//DTD SVG 1.1//EN"
 "http://www.w3.org/Graphics/SVG/1.1/DTD/svg11.dtd">
<!-- Generated by graphviz version 2.44.1 (20200629.0846)
 -->
<!-- Title: g Pages: 1 -->
<svg width="2031pt" height="1710pt"
 viewBox="0.00 0.00 2031.00 1710.40" xmlns="http://www.w3.org/2000/svg" xmlns:xlink="http://www.w3.org/1999/xlink">
<g id="graph0" class="graph" transform="scale(1 1) rotate(0) translate(4 1706.4)">
<title>g</title>
<polygon fill="white" stroke="transparent" points="-4,4 -4,-1706.4 2027,-1706.4 2027,4 -4,4"/>
<g id="clust1" class="cluster">
<title>cluster_1070167022</title>
<polygon fill="#ececec" stroke="black" points="8,-8 8,-1694.4 2015,-1694.4 2015,-8 8,-8"/>
<text text-anchor="middle" x="38.16" y="-1677.8" font-family="Times New Roman,serif" font-size="14.00">csse220</text>
</g>
<g id="clust2" class="cluster">
<title>cluster_1094030033</title>
<polygon fill="#d8d8d8" stroke="black" points="16,-16 16,-1186.4 2007,-1186.4 2007,-16 16,-16"/>
<text text-anchor="middle" x="61.32" y="-1169.8" font-family="Times New Roman,serif" font-size="14.00">game_engine</text>
</g>
<g id="clust3" class="cluster">
<title>cluster_369581935</title>
<polygon fill="#d8d8d8" stroke="black" points="902,-1238 902,-1544.8 1192,-1544.8 1192,-1238 902,-1238"/>
<text text-anchor="middle" x="926.33" y="-1528.2" font-family="Times New Roman,serif" font-size="14.00">levels</text>
</g>
<!-- Main374993180 -->
<g id="node1" class="node">
<title>Main374993180</title>
<polygon fill="#ffffff" stroke="transparent" points="1113,-1661.6 981,-1661.6 981,-1587.6 1113,-1587.6 1113,-1661.6"/>
<text text-anchor="start" x="986" y="-1644" font-family="Times New Roman,serif" font-size="14.00">(C)Main</text>
<text text-anchor="start" x="985.52" y="-1620" font-family="Times New Roman,serif" font-size="14.00">+ main(args: String[])</text>
<text text-anchor="start" x="986" y="-1596" font-family="Times New Roman,serif" font-size="14.00">+ start()</text>
<polygon fill="black" stroke="black" points="981,-1636.6 981,-1636.6 1113,-1636.6 1113,-1636.6 981,-1636.6"/>
<polygon fill="none" stroke="black" points="981,-1587.6 981,-1661.6 1113,-1661.6 1113,-1587.6 981,-1587.6"/>
</g>
<!-- Level604677049 -->
<g id="node15" class="node">
<title>Level604677049</title>
<polygon fill="#ffffff" stroke="transparent" points="1184,-1512 910,-1512 910,-1246 1184,-1246 1184,-1512"/>
<text text-anchor="start" x="915" y="-1494.4" font-family="Times New Roman,serif" font-size="14.00">(C)Level</text>
<text text-anchor="start" x="915" y="-1470.4" font-family="Times New Roman,serif" font-size="14.00">&#45; &#160;&#160;bonfire: Bonfire [0..1]</text>
<text text-anchor="start" x="914.5" y="-1446.4" font-family="Times New Roman,serif" font-size="14.00">&#45; &#160;&#160;bonfireFuels: ArrayList&lt;BonfireFuel&gt; [0..*]</text>
<text text-anchor="start" x="915" y="-1422.4" font-family="Times New Roman,serif" font-size="14.00">&#45; &#160;&#160;enemies: ArrayList&lt;Enemy&gt; [0..*]</text>
<text text-anchor="start" x="915" y="-1398.4" font-family="Times New Roman,serif" font-size="14.00">&#45; &#160;&#160;grassBlocks: ArrayList&lt;GrassBlock&gt; [0..*]</text>
<text text-anchor="start" x="915" y="-1374.4" font-family="Times New Roman,serif" font-size="14.00">&#45; &#160;&#160;platforms: ArrayList&lt;CuboidTerrain&gt; [0..*]</text>
<text text-anchor="start" x="915" y="-1350.4" font-family="Times New Roman,serif" font-size="14.00">&#45; &#160;&#160;playerStartPose: GamePose [0..1]</text>
<text text-anchor="start" x="915" y="-1326.4" font-family="Times New Roman,serif" font-size="14.00">&#45; &#160;&#160;trampolines: ArrayList&lt;Trampoline&gt; [0..*]</text>
<text text-anchor="start" x="915" y="-1302.4" font-family="Times New Roman,serif" font-size="14.00">&#45; getFiles(dir: File): List&lt;File&gt;</text>
<text text-anchor="start" x="915" y="-1278.4" font-family="Times New Roman,serif" font-size="14.00">+ loadAll(): ArrayList&lt;Level&gt;</text>
<text text-anchor="start" x="915" y="-1254.4" font-family="Times New Roman,serif" font-size="14.00">+ loadLevel(file: File): Level</text>
<polygon fill="black" stroke="black" points="910,-1487 910,-1487 1184,-1487 1184,-1487 910,-1487"/>
<polygon fill="black" stroke="black" points="910,-1319 910,-1319 1184,-1319 1184,-1319 910,-1319"/>
<polygon fill="none" stroke="black" points="910,-1246 910,-1512 1184,-1512 1184,-1246 910,-1246"/>
</g>
<!-- Main374993180&#45;&gt;Level604677049 -->
<g id="edge14" class="edge">
<title>Main374993180&#45;&gt;Level604677049</title>
<path fill="none" stroke="black" d="M1047,-1587.39C1047,-1569.4 1047,-1546.36 1047,-1522.22"/>
<polygon fill="black" stroke="black" points="1050.5,-1522.19 1047,-1512.19 1043.5,-1522.19 1050.5,-1522.19"/>
<text text-anchor="middle" x="1099.15" y="-1557" font-family="Times New Roman,serif" font-size="14.00">start() &#45;&gt; loadAll()</text>
</g>
<!-- Bonfire1930825200 -->
<g id="node2" class="node">
<title>Bonfire1930825200</title>
<polygon fill="#ffffff" stroke="transparent" points="722,-925.6 332,-925.6 332,-875.6 722,-875.6 722,-925.6"/>
<text text-anchor="start" x="337" y="-908" font-family="Times New Roman,serif" font-size="14.00">(C)Bonfire</text>
<text text-anchor="start" x="336.62" y="-884" font-family="Times New Roman,serif" font-size="14.00">+ onSolidCollision(other: GameObject, moveDirection: GamePose)</text>
<polygon fill="black" stroke="black" points="332,-900.6 332,-900.6 722,-900.6 722,-900.6 332,-900.6"/>
<polygon fill="none" stroke="black" points="332,-875.6 332,-925.6 722,-925.6 722,-875.6 332,-875.6"/>
</g>
<!-- BonfireFuel1930825200 -->
<g id="node3" class="node">
<title>BonfireFuel1930825200</title>
<polygon fill="#ffffff" stroke="transparent" points="919.5,-973.6 740.5,-973.6 740.5,-827.6 919.5,-827.6 919.5,-973.6"/>
<text text-anchor="start" x="746" y="-956" font-family="Times New Roman,serif" font-size="14.00">(C)BonfireFuel</text>
<text text-anchor="start" x="746" y="-932" font-family="Times New Roman,serif" font-size="14.00">&#45; &#160;&#160;isHidden: boolean [1]</text>
<text text-anchor="start" x="745.68" y="-908" font-family="Times New Roman,serif" font-size="14.00">+ blocksMovement(): boolean</text>
<text text-anchor="start" x="746" y="-884" font-family="Times New Roman,serif" font-size="14.00">+ deleteSelf()</text>
<text text-anchor="start" x="746" y="-860" font-family="Times New Roman,serif" font-size="14.00">+ hitByPlayer()</text>
<text text-anchor="start" x="746" y="-836" font-family="Times New Roman,serif" font-size="14.00">+ reset()</text>
<polygon fill="black" stroke="black" points="741,-948.6 741,-948.6 920,-948.6 920,-948.6 741,-948.6"/>
<polygon fill="black" stroke="black" points="741,-924.6 741,-924.6 920,-924.6 920,-924.6 741,-924.6"/>
<polygon fill="none" stroke="black" points="740.5,-827.6 740.5,-973.6 919.5,-973.6 919.5,-827.6 740.5,-827.6"/>
</g>
<!-- CuboidTerrain1930825200 -->
<g id="node4" class="node">
<title>CuboidTerrain1930825200</title>
<polygon fill="#ffffff" stroke="transparent" points="1048.5,-918.6 937.5,-918.6 937.5,-882.6 1048.5,-882.6 1048.5,-918.6"/>
<text text-anchor="start" x="942.96" y="-896" font-family="Times New Roman,serif" font-size="14.00">(C)CuboidTerrain</text>
<polygon fill="none" stroke="black" points="937.5,-887.6 937.5,-913.6 1048.5,-913.6 1048.5,-887.6 937.5,-887.6"/>
</g>
<!-- Enemy795216083 -->
<g id="node5" class="node">
<title>Enemy795216083</title>
<polygon fill="#ffffff" stroke="transparent" points="1135,-918.6 1067,-918.6 1067,-882.6 1135,-882.6 1135,-918.6"/>
<text text-anchor="start" x="1071.84" y="-896" font-family="Times New Roman,serif" font-size="14.00">(C)Enemy</text>
<polygon fill="none" stroke="black" points="1067,-887.6 1067,-913.6 1135,-913.6 1135,-887.6 1067,-887.6"/>
</g>
<!-- Engine2106046683 -->
<g id="node6" class="node">
<title>Engine2106046683</title>
<polygon fill="#ffffff" stroke="transparent" points="313.5,-1129.6 24.5,-1129.6 24.5,-671.6 313.5,-671.6 313.5,-1129.6"/>
<text text-anchor="start" x="30" y="-1112" font-family="Times New Roman,serif" font-size="14.00">(C)Engine</text>
<text text-anchor="start" x="30" y="-1088" font-family="Times New Roman,serif" font-size="14.00">&#45; &#160;&#160;kinematics: Kinematics [0..1]</text>
<text text-anchor="start" x="30" y="-1064" font-family="Times New Roman,serif" font-size="14.00">&#45; &#160;&#160;levelNumber: int [1]</text>
<text text-anchor="start" x="30" y="-1040" font-family="Times New Roman,serif" font-size="14.00">&#45; &#160;&#160;levels: ArrayList&lt;Level&gt; [0..*]</text>
<text text-anchor="start" x="30" y="-1016" font-family="Times New Roman,serif" font-size="14.00">&#45; &#160;&#160;player: GamePlayer [0..1]</text>
<text text-anchor="start" x="30" y="-992" font-family="Times New Roman,serif" font-size="14.00">&#45; &#160;&#160;soundPlayer: SoundPlayer [0..1]</text>
<text text-anchor="start" x="30" y="-968" font-family="Times New Roman,serif" font-size="14.00">+ addEventManager(runnable: Runnable)</text>
<text text-anchor="start" x="30" y="-944" font-family="Times New Roman,serif" font-size="14.00">+ addGameObject(gameObject: GameObject)</text>
<text text-anchor="start" x="30" y="-920" font-family="Times New Roman,serif" font-size="14.00">+ addLevel(level: Level)</text>
<text text-anchor="start" x="30" y="-896" font-family="Times New Roman,serif" font-size="14.00">&#45; addLevelData(level: Level)</text>
<text text-anchor="start" x="30" y="-872" font-family="Times New Roman,serif" font-size="14.00">+ downOneLevel()</text>
<text text-anchor="start" x="30" y="-848" font-family="Times New Roman,serif" font-size="14.00">+ init(player: GamePlayer, window: JFrame)</text>
<text text-anchor="start" x="30" y="-824" font-family="Times New Roman,serif" font-size="14.00">+ keyPressed(keycode: int): boolean</text>
<text text-anchor="start" x="30" y="-800" font-family="Times New Roman,serif" font-size="14.00">&#45; kill()</text>
<text text-anchor="start" x="29.89" y="-776" font-family="Times New Roman,serif" font-size="14.00">+ removeGameObject(gameObject: GameObject)</text>
<text text-anchor="start" x="30" y="-752" font-family="Times New Roman,serif" font-size="14.00">+ render()</text>
<text text-anchor="start" x="30" y="-728" font-family="Times New Roman,serif" font-size="14.00">+ resetLevel()</text>
<text text-anchor="start" x="30" y="-704" font-family="Times New Roman,serif" font-size="14.00">+ startKinematics()</text>
<text text-anchor="start" x="30" y="-680" font-family="Times New Roman,serif" font-size="14.00">+ upOneLevel()</text>
<polygon fill="black" stroke="black" points="25,-1104.6 25,-1104.6 314,-1104.6 314,-1104.6 25,-1104.6"/>
<polygon fill="black" stroke="black" points="25,-984.6 25,-984.6 314,-984.6 314,-984.6 25,-984.6"/>
<polygon fill="none" stroke="black" points="24.5,-671.6 24.5,-1129.6 313.5,-1129.6 313.5,-671.6 24.5,-671.6"/>
</g>
<!-- GameObject2106046683 -->
<g id="node7" class="node">
<title>GameObject2106046683</title>
<polygon fill="#ffffff" stroke="transparent" points="414,-542 24,-542 24,-60 414,-60 414,-542"/>
<text text-anchor="start" x="29" y="-524.4" font-family="Times New Roman,serif" font-size="14.00">(C)GameObject</text>
<text text-anchor="start" x="29" y="-500.4" font-family="Times New Roman,serif" font-size="14.00">&#45; &#160;&#160;collideable: Collideable [0..1]</text>
<text text-anchor="start" x="29" y="-476.4" font-family="Times New Roman,serif" font-size="14.00">&#45; &#160;&#160;drawable: Drawable [0..1]</text>
<text text-anchor="start" x="29" y="-452.4" font-family="Times New Roman,serif" font-size="14.00">&#45; &#160;&#160;relativeCollideablePose: GamePose [0..1]</text>
<text text-anchor="start" x="29" y="-428.4" font-family="Times New Roman,serif" font-size="14.00">&#45; &#160;&#160;relativeDrawablePose: GamePose [0..1]</text>
<text text-anchor="start" x="29" y="-404.4" font-family="Times New Roman,serif" font-size="14.00">&#45; &#160;&#160;yaw: double [1]</text>
<text text-anchor="start" x="29" y="-380.4" font-family="Times New Roman,serif" font-size="14.00">+ blocksMovement(): boolean</text>
<text text-anchor="start" x="29" y="-356.4" font-family="Times New Roman,serif" font-size="14.00">+ hitByDrone()</text>
<text text-anchor="start" x="29" y="-332.4" font-family="Times New Roman,serif" font-size="14.00">+ hitByLethalEnemy()</text>
<text text-anchor="start" x="29" y="-308.4" font-family="Times New Roman,serif" font-size="14.00">+ hitByPlayer()</text>
<text text-anchor="start" x="29" y="-284.4" font-family="Times New Roman,serif" font-size="14.00">+ hitByTrampoline()</text>
<text text-anchor="start" x="29" y="-260.4" font-family="Times New Roman,serif" font-size="14.00">+ hitByWater()</text>
<text text-anchor="start" x="29" y="-236.4" font-family="Times New Roman,serif" font-size="14.00">+ incrementYaw(increment: double)</text>
<text text-anchor="start" x="29" y="-212.4" font-family="Times New Roman,serif" font-size="14.00">+ move(moveDirection: GamePose, dt: double)</text>
<text text-anchor="start" x="29" y="-188.4" font-family="Times New Roman,serif" font-size="14.00">+ onHitByBonfire()</text>
<text text-anchor="start" x="29" y="-164.4" font-family="Times New Roman,serif" font-size="14.00">+ onSoftCollision(other: GameObject, moveDirection: GamePose)</text>
<text text-anchor="start" x="28.62" y="-140.4" font-family="Times New Roman,serif" font-size="14.00">+ onSolidCollision(other: GameObject, moveDirection: GamePose)</text>
<text text-anchor="start" x="29" y="-116.4" font-family="Times New Roman,serif" font-size="14.00">+ pickUpFuel()</text>
<text text-anchor="start" x="29" y="-92.4" font-family="Times New Roman,serif" font-size="14.00">+ reset()</text>
<text text-anchor="start" x="29" y="-68.4" font-family="Times New Roman,serif" font-size="14.00">+ yaw(): double</text>
<polygon fill="black" stroke="black" points="24,-517 24,-517 414,-517 414,-517 24,-517"/>
<polygon fill="black" stroke="black" points="24,-397 24,-397 414,-397 414,-397 24,-397"/>
<polygon fill="none" stroke="black" points="24,-60 24,-542 414,-542 414,-60 24,-60"/>
</g>
<!-- Engine2106046683&#45;&gt;GameObject2106046683 -->
<g id="edge1" class="edge">
<title>Engine2106046683&#45;&gt;GameObject2106046683</title>
<path fill="none" stroke="black" d="M188.08,-671.54C191.35,-632.49 194.76,-591.72 198.07,-552.13"/>
<polygon fill="black" stroke="black" points="201.57,-552.35 198.91,-542.09 194.59,-551.77 201.57,-552.35"/>
<text text-anchor="middle" x="265.57" y="-608.6" font-family="Times New Roman,serif" font-size="14.00">addLevelData() &#45;&gt; reset()</text>
</g>
<!-- GamePlayer795216083 -->
<g id="node8" class="node">
<title>GamePlayer795216083</title>
<polygon fill="#ffffff" stroke="transparent" points="529.5,-326 432.5,-326 432.5,-276 529.5,-276 529.5,-326"/>
<text text-anchor="start" x="437.58" y="-308.4" font-family="Times New Roman,serif" font-size="14.00">(C)GamePlayer</text>
<text text-anchor="start" x="438" y="-284.4" font-family="Times New Roman,serif" font-size="14.00">+ doPower()</text>
<polygon fill="black" stroke="black" points="433,-301 433,-301 530,-301 530,-301 433,-301"/>
<polygon fill="none" stroke="black" points="432.5,-276 432.5,-326 529.5,-326 529.5,-276 432.5,-276"/>
</g>
<!-- Engine2106046683&#45;&gt;GamePlayer795216083 -->
<g id="edge2" class="edge">
<title>Engine2106046683&#45;&gt;GamePlayer795216083</title>
<path fill="none" stroke="black" d="M308.51,-671.31C317.47,-656.64 323,-647.6 323,-647.6 323,-647.6 423,-578 423,-578 423,-578 458.29,-410.08 473.81,-336.2"/>
<polygon fill="black" stroke="black" points="477.32,-336.52 475.95,-326.01 470.47,-335.08 477.32,-336.52"/>
<text text-anchor="middle" x="413.49" y="-617" font-family="Times New Roman,serif" font-size="14.00">player</text>
<text text-anchor="middle" x="413.49" y="-600.2" font-family="Times New Roman,serif" font-size="14.00">[0..1]</text>
</g>
<!-- KillableThread2106046683 -->
<g id="node11" class="node">
<title>KillableThread2106046683</title>
<polygon fill="#ffffff" stroke="transparent" points="678,-350 548,-350 548,-252 678,-252 678,-350"/>
<text text-anchor="start" x="553" y="-332.4" font-family="Times New Roman,serif" font-size="14.00">(C)KillableThread</text>
<text text-anchor="start" x="552.94" y="-308.4" font-family="Times New Roman,serif" font-size="14.00">&#45; &#160;&#160;active: boolean [1]</text>
<text text-anchor="start" x="553" y="-284.4" font-family="Times New Roman,serif" font-size="14.00"># activate()</text>
<text text-anchor="start" x="553" y="-260.4" font-family="Times New Roman,serif" font-size="14.00"># kill()</text>
<polygon fill="black" stroke="black" points="548,-325 548,-325 678,-325 678,-325 548,-325"/>
<polygon fill="black" stroke="black" points="548,-301 548,-301 678,-301 678,-301 548,-301"/>
<polygon fill="none" stroke="black" points="548,-252 548,-350 678,-350 678,-252 548,-252"/>
</g>
<!-- Engine2106046683&#45;&gt;KillableThread2106046683 -->
<g id="edge3" class="edge">
<title>Engine2106046683&#45;&gt;KillableThread2106046683</title>
<path fill="none" stroke="black" d="M308.51,-671.31C317.47,-656.64 323,-647.6 323,-647.6 323,-647.6 435,-629.6 435,-629.6 435,-629.6 539,-578 539,-578 539,-578 575.7,-441.11 597.41,-360.14"/>
<polygon fill="black" stroke="black" points="600.9,-360.64 600.11,-350.08 594.14,-358.83 600.9,-360.64"/>
<text text-anchor="middle" x="539.77" y="-608.6" font-family="Times New Roman,serif" font-size="14.00">kill() &#45;&gt; kill()</text>
</g>
<!-- Kinematics286411639 -->
<g id="node12" class="node">
<title>Kinematics286411639</title>
<polygon fill="#ffffff" stroke="transparent" points="985.5,-578 696.5,-578 696.5,-24 985.5,-24 985.5,-578"/>
<text text-anchor="start" x="702" y="-560.4" font-family="Times New Roman,serif" font-size="14.00">(C)Kinematics</text>
<text text-anchor="start" x="702" y="-536.4" font-family="Times New Roman,serif" font-size="14.00">&#45; &#160;&#160;CAMERA_OFFSET: GamePose [0..1]</text>
<text text-anchor="start" x="702" y="-512.4" font-family="Times New Roman,serif" font-size="14.00">&#45; &#160;&#160;backgroundColor: Color [0..1]</text>
<text text-anchor="start" x="702" y="-488.4" font-family="Times New Roman,serif" font-size="14.00">&#45; &#160;&#160;collideables: Set&lt;GameObject&gt; [0..*]</text>
<text text-anchor="start" x="702" y="-464.4" font-family="Times New Roman,serif" font-size="14.00">&#45; &#160;&#160;drawables: Set&lt;Drawable&gt; [0..*]</text>
<text text-anchor="start" x="702" y="-440.4" font-family="Times New Roman,serif" font-size="14.00">&#45; &#160;&#160;elementMoveSteps: GamePose[] [0..*]</text>
<text text-anchor="start" x="702" y="-416.4" font-family="Times New Roman,serif" font-size="14.00">&#45; &#160;&#160;eventManagers: Set&lt;Runnable&gt; [0..*]</text>
<text text-anchor="start" x="702" y="-392.4" font-family="Times New Roman,serif" font-size="14.00">&#45; &#160;&#160;fpsTimer: ElapsedTime [0..1]</text>
<text text-anchor="start" x="702" y="-368.4" font-family="Times New Roman,serif" font-size="14.00">&#45; &#160;&#160;frames: double [1]</text>
<text text-anchor="start" x="702" y="-344.4" font-family="Times New Roman,serif" font-size="14.00">&#45; &#160;&#160;gameKeyListener: GameKeyListener [0..1]</text>
<text text-anchor="start" x="702" y="-320.4" font-family="Times New Roman,serif" font-size="14.00">&#45; &#160;&#160;gameObjects: Set&lt;GameObject&gt; [0..*]</text>
<text text-anchor="start" x="702" y="-296.4" font-family="Times New Roman,serif" font-size="14.00">&#45; &#160;&#160;player: GamePlayer [0..1]</text>
<text text-anchor="start" x="702" y="-272.4" font-family="Times New Roman,serif" font-size="14.00">&#45; &#160;&#160;spectateMode: boolean [1]</text>
<text text-anchor="start" x="702" y="-248.4" font-family="Times New Roman,serif" font-size="14.00">&#45; &#160;&#160;timer: ElapsedTime [0..1]</text>
<text text-anchor="start" x="702" y="-224.4" font-family="Times New Roman,serif" font-size="14.00">+ addEventManager(runnable: Runnable)</text>
<text text-anchor="start" x="702" y="-200.4" font-family="Times New Roman,serif" font-size="14.00">+ addGameObject(gameObject: GameObject)</text>
<text text-anchor="start" x="702" y="-176.4" font-family="Times New Roman,serif" font-size="14.00">+ clearAllGameObjects()</text>
<text text-anchor="start" x="702" y="-152.4" font-family="Times New Roman,serif" font-size="14.00">+ keyPressed(keycode: int): boolean</text>
<text text-anchor="start" x="701.89" y="-128.4" font-family="Times New Roman,serif" font-size="14.00">+ removeGameObject(gameObject: GameObject)</text>
<text text-anchor="start" x="702" y="-104.4" font-family="Times New Roman,serif" font-size="14.00">+ render(dt: double)</text>
<text text-anchor="start" x="702" y="-80.4" font-family="Times New Roman,serif" font-size="14.00">+ run()</text>
<text text-anchor="start" x="702" y="-56.4" font-family="Times New Roman,serif" font-size="14.00">+ start()</text>
<text text-anchor="start" x="702" y="-32.4" font-family="Times New Roman,serif" font-size="14.00">&#45; updateCameraPosition(dt: double)</text>
<polygon fill="black" stroke="black" points="697,-553 697,-553 986,-553 986,-553 697,-553"/>
<polygon fill="black" stroke="black" points="697,-241 697,-241 986,-241 986,-241 697,-241"/>
<polygon fill="none" stroke="black" points="696.5,-24 696.5,-578 985.5,-578 985.5,-24 696.5,-24"/>
</g>
<!-- Engine2106046683&#45;&gt;Kinematics286411639 -->
<g id="edge4" class="edge">
<title>Engine2106046683&#45;&gt;Kinematics286411639</title>
<path fill="none" stroke="black" d="M308.51,-671.31C317.47,-656.64 323,-647.6 323,-647.6 323,-647.6 582,-629.6 582,-629.6 582,-629.6 687,-578 687,-578 687,-578 688.57,-575.18 691.4,-570.12"/>
<polygon fill="black" stroke="black" points="694.59,-571.59 696.4,-561.15 688.47,-568.18 694.59,-571.59"/>
<text text-anchor="middle" x="680.33" y="-617" font-family="Times New Roman,serif" font-size="14.00">kinematics</text>
<text text-anchor="middle" x="680.33" y="-600.2" font-family="Times New Roman,serif" font-size="14.00">[0..1]</text>
</g>
<!-- SoundPlayer2106046683 -->
<g id="node13" class="node">
<title>SoundPlayer2106046683</title>
<polygon fill="#ffffff" stroke="transparent" points="1270,-434 1004,-434 1004,-168 1270,-168 1270,-434"/>
<text text-anchor="start" x="1009" y="-416.4" font-family="Times New Roman,serif" font-size="14.00">(C)SoundPlayer</text>
<text text-anchor="start" x="1009" y="-392.4" font-family="Times New Roman,serif" font-size="14.00">&#45; &#160;&#160;backgroundSong: MiniPlayer [0..1]</text>
<text text-anchor="start" x="1009" y="-368.4" font-family="Times New Roman,serif" font-size="14.00">&#45; &#160;&#160;boingSound: MiniPlayer [0..1]</text>
<text text-anchor="start" x="1009" y="-344.4" font-family="Times New Roman,serif" font-size="14.00">&#45; &#160;&#160;deathSound: MiniPlayer [0..1]</text>
<text text-anchor="start" x="1009" y="-320.4" font-family="Times New Roman,serif" font-size="14.00">&#45; &#160;&#160;gainFuelSound: MiniPlayer [0..1]</text>
<text text-anchor="start" x="1008.89" y="-296.4" font-family="Times New Roman,serif" font-size="14.00">&#45; &#160;&#160;loseHealthSound: AudioInputStream [0..1]</text>
<text text-anchor="start" x="1009" y="-272.4" font-family="Times New Roman,serif" font-size="14.00">&#45; &#160;&#160;winSound: AudioInputStream [0..1]</text>
<text text-anchor="start" x="1009" y="-248.4" font-family="Times New Roman,serif" font-size="14.00">+ deathSound()</text>
<text text-anchor="start" x="1009" y="-224.4" font-family="Times New Roman,serif" font-size="14.00">+ gainFuelSound()</text>
<text text-anchor="start" x="1009" y="-200.4" font-family="Times New Roman,serif" font-size="14.00">+ startBackground()</text>
<text text-anchor="start" x="1009" y="-176.4" font-family="Times New Roman,serif" font-size="14.00">+ trampolineSound()</text>
<polygon fill="black" stroke="black" points="1004,-409 1004,-409 1270,-409 1270,-409 1004,-409"/>
<polygon fill="black" stroke="black" points="1004,-265 1004,-265 1270,-265 1270,-265 1004,-265"/>
<polygon fill="none" stroke="black" points="1004,-168 1004,-434 1270,-434 1270,-168 1004,-168"/>
</g>
<!-- Engine2106046683&#45;&gt;SoundPlayer2106046683 -->
<g id="edge6" class="edge">
<title>Engine2106046683&#45;&gt;SoundPlayer2106046683</title>
<path fill="none" stroke="black" d="M308.51,-671.31C317.47,-656.64 323,-647.6 323,-647.6 323,-647.6 715,-629.6 715,-629.6 715,-629.6 995,-578 995,-578 995,-578 1029.32,-511.3 1064.21,-443.48"/>
<polygon fill="black" stroke="black" points="1067.45,-444.83 1068.91,-434.34 1061.22,-441.63 1067.45,-444.83"/>
<text text-anchor="middle" x="930.6" y="-617" font-family="Times New Roman,serif" font-size="14.00">soundPlayer</text>
<text text-anchor="middle" x="930.6" y="-600.2" font-family="Times New Roman,serif" font-size="14.00">[0..1]</text>
</g>
<!-- Engine2106046683&#45;&gt;Level604677049 -->
<g id="edge5" class="edge">
<title>Engine2106046683&#45;&gt;Level604677049</title>
<path fill="none" stroke="black" d="M292.39,-1129.79C310.39,-1163.08 323,-1186.4 323,-1186.4 323,-1186.4 688.38,-1283.1 900.01,-1339.1"/>
<polygon fill="black" stroke="black" points="899.41,-1342.56 909.97,-1341.74 901.2,-1335.79 899.41,-1342.56"/>
<text text-anchor="middle" x="495.33" y="-1215.4" font-family="Times New Roman,serif" font-size="14.00">levels</text>
<text text-anchor="middle" x="495.33" y="-1198.6" font-family="Times New Roman,serif" font-size="14.00">[0..*]</text>
</g>
<!-- GamePose1300584399 -->
<g id="node9" class="node">
<title>GamePose1300584399</title>
<polygon fill="#ffffff" stroke="transparent" points="1485,-1153.6 1153,-1153.6 1153,-647.6 1485,-647.6 1485,-1153.6"/>
<text text-anchor="start" x="1158" y="-1136" font-family="Times New Roman,serif" font-size="14.00">(C)GamePose</text>
<text text-anchor="start" x="1158" y="-1112" font-family="Times New Roman,serif" font-size="14.00">&#45; &#160;&#160;yaw: double [1]</text>
<text text-anchor="start" x="1158" y="-1088" font-family="Times New Roman,serif" font-size="14.00">+ addTo(pose: GamePose): GamePose</text>
<text text-anchor="start" x="1158" y="-1064" font-family="Times New Roman,serif" font-size="14.00">+ between(first: GamePose, second: GamePose): boolean</text>
<text text-anchor="start" x="1158" y="-1040" font-family="Times New Roman,serif" font-size="14.00">+ ceil(precision: int): GamePose</text>
<text text-anchor="start" x="1158" y="-1016" font-family="Times New Roman,serif" font-size="14.00">+ dot(other: GamePose): double</text>
<text text-anchor="start" x="1158" y="-992" font-family="Times New Roman,serif" font-size="14.00">+ floor(precision: int): GamePose</text>
<text text-anchor="start" x="1158" y="-968" font-family="Times New Roman,serif" font-size="14.00">+ normalize(): GamePose</text>
<text text-anchor="start" x="1158" y="-944" font-family="Times New Roman,serif" font-size="14.00">+ relativeTo(pose: GamePose): GamePose</text>
<text text-anchor="start" x="1158" y="-920" font-family="Times New Roman,serif" font-size="14.00">+ rotateYaw(yaw: double): GamePose</text>
<text text-anchor="start" x="1158" y="-896" font-family="Times New Roman,serif" font-size="14.00">+ round(precisionVector: GamePose): GamePose</text>
<text text-anchor="start" x="1158" y="-872" font-family="Times New Roman,serif" font-size="14.00">+ round(precision: int): GamePose</text>
<text text-anchor="start" x="1158" y="-848" font-family="Times New Roman,serif" font-size="14.00">+ scale(scalar: double): GamePose</text>
<text text-anchor="start" x="1158" y="-824" font-family="Times New Roman,serif" font-size="14.00">+ setYaw(yaw: double): GamePose</text>
<text text-anchor="start" x="1158" y="-800" font-family="Times New Roman,serif" font-size="14.00">+ toPoint3d(): Point3d</text>
<text text-anchor="start" x="1158" y="-776" font-family="Times New Roman,serif" font-size="14.00">+ translate(vector: Vector3d): GamePose</text>
<text text-anchor="start" x="1158" y="-752" font-family="Times New Roman,serif" font-size="14.00">+ translate(x: double, y: double, z: double): GamePose</text>
<text text-anchor="start" x="1158" y="-728" font-family="Times New Roman,serif" font-size="14.00">+ translateX(x: double): GamePose</text>
<text text-anchor="start" x="1158" y="-704" font-family="Times New Roman,serif" font-size="14.00">+ translateY(y: double): GamePose</text>
<text text-anchor="start" x="1158" y="-680" font-family="Times New Roman,serif" font-size="14.00">+ translateZ(z: double): GamePose</text>
<text text-anchor="start" x="1158" y="-656" font-family="Times New Roman,serif" font-size="14.00">+ yaw(): double</text>
<polygon fill="black" stroke="black" points="1153,-1128.6 1153,-1128.6 1485,-1128.6 1485,-1128.6 1153,-1128.6"/>
<polygon fill="black" stroke="black" points="1153,-1104.6 1153,-1104.6 1485,-1104.6 1485,-1104.6 1153,-1104.6"/>
<polygon fill="none" stroke="black" points="1153,-647.6 1153,-1153.6 1485,-1153.6 1485,-647.6 1153,-647.6"/>
</g>
<!-- GrassBlock1930825200 -->
<g id="node10" class="node">
<title>GrassBlock1930825200</title>
<polygon fill="#ffffff" stroke="transparent" points="1596.5,-918.6 1503.5,-918.6 1503.5,-882.6 1596.5,-882.6 1596.5,-918.6"/>
<text text-anchor="start" x="1508.51" y="-896" font-family="Times New Roman,serif" font-size="14.00">(C)GrassBlock</text>
<polygon fill="none" stroke="black" points="1503.5,-887.6 1503.5,-913.6 1596.5,-913.6 1596.5,-887.6 1503.5,-887.6"/>
</g>
<!-- Trampoline1930825200 -->
<g id="node14" class="node">
<title>Trampoline1930825200</title>
<polygon fill="#ffffff" stroke="transparent" points="1999,-937.6 1615,-937.6 1615,-863.6 1999,-863.6 1999,-937.6"/>
<text text-anchor="start" x="1620" y="-920" font-family="Times New Roman,serif" font-size="14.00">(C)Trampoline</text>
<text text-anchor="start" x="1620" y="-896" font-family="Times New Roman,serif" font-size="14.00">+ blocksMovement(): boolean</text>
<text text-anchor="start" x="1619.74" y="-872" font-family="Times New Roman,serif" font-size="14.00">+ onSoftCollision(other: GameObject, moveDirection: GamePose)</text>
<polygon fill="black" stroke="black" points="1615,-912.6 1615,-912.6 1999,-912.6 1999,-912.6 1615,-912.6"/>
<polygon fill="none" stroke="black" points="1615,-863.6 1615,-937.6 1999,-937.6 1999,-863.6 1615,-863.6"/>
</g>
<!-- Level604677049&#45;&gt;Bonfire1930825200 -->
<g id="edge7" class="edge">
<title>Level604677049&#45;&gt;Bonfire1930825200</title>
<path fill="none" stroke="black" d="M909.75,-1294.52C824.87,-1242.89 732,-1186.4 732,-1186.4 732,-1186.4 604.1,-1008.71 550.35,-934.04"/>
<polygon fill="black" stroke="black" points="553.16,-931.95 544.48,-925.88 547.48,-936.04 553.16,-931.95"/>
<text text-anchor="middle" x="820.21" y="-1215.4" font-family="Times New Roman,serif" font-size="14.00">bonfire</text>
<text text-anchor="middle" x="820.21" y="-1198.6" font-family="Times New Roman,serif" font-size="14.00">[0..1]</text>
</g>
<!-- Level604677049&#45;&gt;BonfireFuel1930825200 -->
<g id="edge8" class="edge">
<title>Level604677049&#45;&gt;BonfireFuel1930825200</title>
<path fill="none" stroke="black" d="M952.91,-1245.8C945.17,-1234.92 940.24,-1228 940.24,-1228 940.24,-1228 890.18,-1079.79 857.53,-983.11"/>
<polygon fill="black" stroke="black" points="860.85,-981.99 854.33,-973.63 854.21,-984.23 860.85,-981.99"/>
<text text-anchor="middle" x="975.38" y="-1215.4" font-family="Times New Roman,serif" font-size="14.00">bonfireFuels</text>
<text text-anchor="middle" x="975.38" y="-1198.6" font-family="Times New Roman,serif" font-size="14.00">[0..*]</text>
</g>
<!-- Level604677049&#45;&gt;CuboidTerrain1930825200 -->
<g id="edge9" class="edge">
<title>Level604677049&#45;&gt;CuboidTerrain1930825200</title>
<path fill="none" stroke="black" d="M1020.87,-1245.8C1018.72,-1234.92 1017.35,-1228 1017.35,-1228 1017.35,-1228 1000.87,-1007.12 995.03,-928.76"/>
<polygon fill="black" stroke="black" points="998.51,-928.4 994.27,-918.69 991.53,-928.92 998.51,-928.4"/>
<text text-anchor="middle" x="1043.83" y="-1215.4" font-family="Times New Roman,serif" font-size="14.00">platforms</text>
<text text-anchor="middle" x="1043.83" y="-1198.6" font-family="Times New Roman,serif" font-size="14.00">[0..*]</text>
</g>
<!-- Level604677049&#45;&gt;Enemy795216083 -->
<g id="edge10" class="edge">
<title>Level604677049&#45;&gt;Enemy795216083</title>
<path fill="none" stroke="black" d="M1068.15,-1245.8C1069.89,-1234.92 1071,-1228 1071,-1228 1071,-1228 1091.3,-1007.12 1098.5,-928.76"/>
<polygon fill="black" stroke="black" points="1102,-928.97 1099.43,-918.69 1095.03,-928.33 1102,-928.97"/>
<text text-anchor="middle" x="1095.93" y="-1215.4" font-family="Times New Roman,serif" font-size="14.00">enemies</text>
<text text-anchor="middle" x="1095.93" y="-1198.6" font-family="Times New Roman,serif" font-size="14.00">[0..*]</text>
</g>
<!-- Level604677049&#45;&gt;GamePose1300584399 -->
<g id="edge11" class="edge">
<title>Level604677049&#45;&gt;GamePose1300584399</title>
<path fill="none" stroke="black" d="M1122.41,-1245.93C1137.37,-1219.73 1153.56,-1191.37 1170,-1162.56"/>
<polygon fill="black" stroke="black" points="1173.19,-1164.03 1175.11,-1153.61 1167.12,-1160.56 1173.19,-1164.03"/>
<text text-anchor="middle" x="1193.93" y="-1215.4" font-family="Times New Roman,serif" font-size="14.00">playerStartPose</text>
<text text-anchor="middle" x="1193.93" y="-1198.6" font-family="Times New Roman,serif" font-size="14.00">[0..1]</text>
</g>
<!-- Level604677049&#45;&gt;GrassBlock1930825200 -->
<g id="edge12" class="edge">
<title>Level604677049&#45;&gt;GrassBlock1930825200</title>
<path fill="none" stroke="black" d="M1184.15,-1319.21C1315.55,-1262.89 1494,-1186.4 1494,-1186.4 1494,-1186.4 1530.57,-1000.41 1544.61,-929.03"/>
<polygon fill="black" stroke="black" points="1548.09,-929.47 1546.58,-918.99 1541.22,-928.12 1548.09,-929.47"/>
<text text-anchor="middle" x="1503.83" y="-1215.4" font-family="Times New Roman,serif" font-size="14.00">grassBlocks</text>
<text text-anchor="middle" x="1503.83" y="-1198.6" font-family="Times New Roman,serif" font-size="14.00">[0..*]</text>
</g>
<!-- Level604677049&#45;&gt;Trampoline1930825200 -->
<g id="edge13" class="edge">
<title>Level604677049&#45;&gt;Trampoline1930825200</title>
<path fill="none" stroke="black" d="M1184.23,-1336.42C1330.72,-1292.02 1542,-1228 1542,-1228 1542,-1228 1606,-1186.4 1606,-1186.4 1606,-1186.4 1719.07,-1026.19 1775.6,-946.1"/>
<polygon fill="black" stroke="black" points="1778.64,-947.86 1781.54,-937.67 1772.92,-943.82 1778.64,-947.86"/>
<text text-anchor="middle" x="1625.05" y="-1215.4" font-family="Times New Roman,serif" font-size="14.00">trampolines</text>
<text text-anchor="middle" x="1625.05" y="-1198.6" font-family="Times New Roman,serif" font-size="14.00">[0..*]</text>
</g>
</g>
</svg>
